<?xml version="1.0" encoding="UTF-8" standalone="no"?>
<!-- Created with Inkscape (http://www.inkscape.org/) -->

<svg
   version="1.1"
   id="svg2"
   width="885.83063"
   height="1352.6666"
   viewBox="0 0 885.83061 1352.6666"
   xmlns="http://www.w3.org/2000/svg"
   xmlns:svg="http://www.w3.org/2000/svg">
  <g
     id="g10"
     transform="matrix(1.3333333,0,0,-1.3333333,-727.64932,2009.6666)">
    <g
       id="g12"
       transform="scale(0.1)">
      <path
         d="m 8686.85,10247.1 c 817.38,2420.2 -152.41,4695.7 -164.06,4722.5 -14.71,33.6 -22.47,68.3 -24.56,102.9 -1703.07,-218.8 -3040.86,-2407.3 -3040.86,-5075.2 0,-2644.4 1314.23,-4817.9 2995.78,-5069.1 -1019.97,2221.1 -158.05,4383.1 29.31,4802.3 82.38,184.3 149.24,353.3 204.39,516.6"
         style="fill:#ffffff;fill-opacity:1;fill-rule:nonzero;stroke:none"
         id="path14" />
      <path
         d="m 11693.8,7552.3 c 259.5,725.7 407.3,1558.8 407.3,2445 0,36.5 -0.3,72.9 -0.8,109.2 -35.4,2578.4 -1320.3,4685.4 -2963.76,4954.9 219.07,-577.4 901.86,-2700.1 122.52,-5007.6 -61.3,-181.5 -134.97,-367.9 -225.19,-569.8 -172.39,-385.6 -980.82,-2412.4 35.6,-4445.2 17.94,-35.9 27.88,-73.6 30.84,-111.3 649.16,95.5 1243.69,477.6 1729.29,1062.6 183.1,220.5 350.8,469.7 500,743.6 138,253.1 260,527.3 364.2,818.6"
         style="fill:#ffffff;fill-opacity:1;fill-rule:nonzero;stroke:none"
         id="path20" />
    </g>
  </g>
</svg>
